<svg
  aria-hidden="true"
  style="position: absolute; width: 0; height: 0; overflow: hidden;"
  version="1.1"
  xmlns="http://www.w3.org/2000/svg"
  xmlns:xlink="http://www.w3.org/1999/xlink"
>
<defs>
<symbol id="icon-antenna" viewBox="0 0 32 32">
<path
        d="M30.766 22.080l-8.457-8.503 0.96-4.571c0.229 0.046 0.457 0.137 0.777 0.137 0.007 0 0.016 0 0.025 0 1.187 0 2.149-0.962 2.149-2.149s-0.962-2.149-2.149-2.149c-1.187 0-2.149 0.962-2.149 2.149 0 0.245 0.041 0.481 0.117 0.701l-0.005-0.015-4.983 0.594-8.091-8.137c-0.091-0.091-0.229-0.137-0.366-0.137s-0.274 0.046-0.366 0.137l-1.509 1.509c-0.229 0.229-0.229 0.549 0 0.777l0.823 0.777c-1.129 2.053-1.794 4.499-1.794 7.1 0 4.161 1.7 7.925 4.444 10.635l0.002 0.002-0.046 0.549v6.217h-6.4c-0.014-0-0.030-0-0.046-0-1.464 0-2.651 1.187-2.651 2.651 0 0 0 0 0 0v-0 1.051c0 0.32 0.274 0.549 0.549 0.549h24.549c0.274 0 0.503-0.229 0.503-0.549v-1.051c0-1.463-1.189-2.651-2.651-2.651h-6.4v-2.743c0.899 0.191 1.932 0.3 2.991 0.3 2.586 0 5.020-0.653 7.146-1.803l-0.080 0.039 0.869 0.823c0.091 0.091 0.229 0.137 0.366 0.137s0.274-0.046 0.366-0.137l1.509-1.509c0.229-0.229 0.229-0.549 0-0.777zM23.314 6.217c0.186-0.169 0.434-0.272 0.706-0.272 0.581 0 1.051 0.471 1.051 1.051 0 0.555-0.431 1.010-0.976 1.049l-0.003 0c-0.021 0.002-0.046 0.002-0.072 0.002-0.581 0-1.051-0.471-1.051-1.051 0-0.309 0.133-0.586 0.345-0.779l0.001-0.001zM22.080 9.737l-0.594 2.926-1.189-1.143 1.783-1.783zM21.486 8.823l-1.92 1.92-1.509-1.509 3.429-0.411zM24 28.8c0.914 0 1.6 0.731 1.6 1.6v0.549h-23.451v-0.549c0-0.914 0.686-1.6 1.6-1.6h20.251zM16.549 26.651v1.097h-5.349v-1.097h5.349zM11.2 25.6v-4.069c0-1.28 1.189-2.331 2.651-2.331 1.509 0 2.697 1.051 2.697 2.331v4.069h-5.349zM17.6 23.909v-2.423c0-1.829-1.691-3.383-3.749-3.383-1.326 0-2.56 0.64-3.246 1.783-2.369-2.481-3.827-5.85-3.827-9.559 0-2.319 0.57-4.505 1.578-6.426l-0.036 0.076 18.606 18.743c-1.816 0.94-3.965 1.492-6.242 1.492-1.093 0-2.157-0.127-3.177-0.367l0.094 0.019zM28.891 23.223l-0.731-0.823-19.566-19.657-0.823-0.686 0.777-0.777 7.909 8 13.257 13.12-0.777 0.777z"
      />
<path
        d="M13.897 20.251c-0.884 0-1.6 0.716-1.6 1.6s0.716 1.6 1.6 1.6v0c0.884 0 1.6-0.716 1.6-1.6s-0.716-1.6-1.6-1.6v0zM14.263 22.263c-0.101 0.112-0.247 0.183-0.409 0.183-0.303 0-0.549-0.246-0.549-0.549s0.244-0.547 0.546-0.549h0c0.001 0 0.002 0 0.003 0 0.303 0 0.549 0.246 0.549 0.549 0 0.141-0.053 0.269-0.14 0.366l0-0z"
      />
</symbol>
<symbol id="icon-astronaut" viewBox="0 0 32 32">
<path
        d="M32 4.526c-0.091-0.183-0.274-0.32-0.457-0.366l-1.92-0.274-0.823-1.737c-0.183-0.366-0.777-0.366-0.96 0l-0.914 1.737-1.829 0.274c-0.265 0.042-0.465 0.269-0.465 0.542 0 0.144 0.055 0.275 0.146 0.372l-0-0 1.371 1.371-0.32 1.874c-0.002 0.015-0.002 0.033-0.002 0.051 0 0.303 0.246 0.549 0.549 0.549 0.084 0 0.163-0.019 0.234-0.052l-0.003 0.001 1.691-0.914 1.691 0.914c0.068 0.032 0.147 0.051 0.231 0.051 0.303 0 0.549-0.246 0.549-0.549 0-0.018-0.001-0.036-0.003-0.053l0 0.002-0.32-1.92 1.371-1.371c0.183-0.091 0.229-0.32 0.137-0.503zM29.531 5.851c-0.137 0.137-0.183 0.32-0.183 0.457l0.183 1.143-1.006-0.549c-0.067-0.032-0.146-0.050-0.229-0.050s-0.162 0.018-0.232 0.051l0.003-0.001-1.006 0.549 0.183-1.143c0-0.137 0-0.32-0.137-0.457l-0.823-0.777 1.097-0.183c0.183 0 0.32-0.137 0.457-0.274l0.457-1.006 0.503 0.96c0.091 0.137 0.229 0.274 0.411 0.274l1.097 0.183-0.777 0.777zM26.149 20.526h-1.097v1.051h1.097v-1.006zM26.149 22.674h-1.097v1.051h1.097v-1.051zM27.2 21.577h-1.051v1.097h1.051v-1.097zM25.051 21.577h-1.051v1.097h1.051v-1.097zM22.4 26.377h-1.051v1.097h1.051v-1.097zM22.4 28.526h-1.051v1.051h1.051v-1.051zM23.451 27.429h-1.051v1.097h1.051v-1.097zM21.349 27.429h-1.097v1.097h1.097v-1.097zM16 24.229h-1.051v1.097h1.051v-1.097zM16 26.377h-1.051v1.097h1.051v-1.097zM17.051 25.326h-1.051v1.051h1.051v-1.051zM14.949 25.326h-1.097v1.051h1.097v-1.051zM5.851 6.126h-1.051v1.051h1.051v-1.051zM5.851 8.229h-1.051v1.097h1.051v-1.097z"
      />
<path
        d="M6.949 7.177h-1.097v1.097h1.097v-1.097zM4.8 7.177h-1.051v1.097h1.051v-1.097z"
      />
<path
        d="M24.686 14.171c-0.266-0.377-0.668-0.643-1.132-0.73l-0.011-0.002c-0.457-0.046-0.96 0.091-1.371 0.366l-1.234 0.96-1.92 1.417-1.371-0.549c2.403-1.128 4.037-3.528 4.037-6.309 0-3.81-3.067-6.904-6.867-6.948l-0.004-0c-3.818 0.025-6.904 3.127-6.904 6.948 0 1.392 0.409 2.689 1.114 3.776l-0.016-0.027h-3.063l-3.2 1.646-1.92 0.914h-0.091c-0.524 0.317-0.869 0.884-0.869 1.531 0 0.985 0.799 1.784 1.784 1.784 0.338 0 0.653-0.094 0.922-0.257l-0.008 0.004 1.371-0.731 2.286-1.143h1.371l-5.394 5.349-1.371 1.371c-0.286 0.296-0.462 0.699-0.462 1.143s0.176 0.847 0.462 1.143l-0-0c0.3 0.313 0.722 0.507 1.189 0.507s0.889-0.194 1.188-0.507l0.001-0.001 1.371-1.28 1.691-1.28 0.914 0.914-1.783 1.737-1.28 1.371c-0.299 0.298-0.484 0.71-0.484 1.166s0.185 0.868 0.484 1.166l0 0c0.305 0.302 0.725 0.488 1.189 0.488s0.883-0.186 1.189-0.488l3.428-3.428 1.006-0.96 5.166-5.714 3.474 0.503c0.041 0.012 0.088 0.019 0.137 0.019s0.096-0.007 0.141-0.020l-0.004 0.001 0.046-0.046h0.046l3.2-2.149 0.046-0.046h0.046l1.28-1.234c0.345-0.326 0.559-0.786 0.559-1.297 0-0.388-0.124-0.747-0.334-1.040l0.004 0.005zM2.194 17.783c-0.183 0.091-0.366 0.091-0.594 0-0.264-0.114-0.445-0.373-0.445-0.673 0-0.225 0.101-0.426 0.261-0.56l0.001-0.001 1.28-0.64 0.32 0.914 0.137 0.457-0.96 0.457zM5.669 15.954l-1.554 0.777-0.274-0.731-0.183-0.549 2.011-1.006v1.554zM20.754 9.326c0 0.914-0.183 1.783-0.594 2.56l-4.16-1.92c-0.041-0.569-0.336-1.061-0.771-1.368l-0.006-0.004 1.463-4.846c2.377 0.731 4.114 2.971 4.114 5.577zM9.006 9.326c0.032-3.232 2.66-5.841 5.897-5.841 0.226 0 0.448 0.013 0.667 0.037l-0.027-0.002-1.417 4.709c-0.027-0.001-0.059-0.002-0.091-0.002-1.010 0-1.829 0.819-1.829 1.829 0 0.001 0 0.002 0 0.002v-0c-0.013 0.081-0.020 0.175-0.020 0.271 0 1.010 0.819 1.829 1.829 1.829 0.779 0 1.444-0.487 1.707-1.172l0.004-0.012 3.84 1.783c-1.088 1.432-2.791 2.347-4.709 2.347-3.23 0-5.854-2.597-5.897-5.818l-0-0.004zM14.949 10.103c0 0.457-0.366 0.823-0.823 0.823s-0.777-0.366-0.777-0.823 0.32-0.777 0.777-0.777 0.823 0.366 0.823 0.777zM2.514 25.189c-0.229 0.183-0.64 0.183-0.869 0-0.131-0.11-0.215-0.274-0.215-0.457s0.083-0.347 0.214-0.456l0.001-0.001 0.96-0.914 0.869 0.823-1.006 0.96zM5.714 28.846c-0.229 0.274-0.594 0.274-0.823 0-0.102-0.107-0.165-0.252-0.165-0.411s0.063-0.305 0.166-0.412l0.914-0.914 0.457 0.366 0.457 0.457-1.006 0.914zM9.189 25.417l-1.737 1.737-0.457-0.366-0.411-0.457 1.783-1.783 0.091-0.137v-0.183l0.046-0.091v-0.183l-0.137-0.137v-0.046l-1.6-1.6h-0.091l-0.091-0.091h-0.091l-0.091-0.046h-0.183l-0.091 0.046h-0.183l-1.737 1.371-0.914-0.914 2.377-2.377 4.389 4.297-0.914 0.914zM16.046 18.377h-0.046c-0.019-0.002-0.040-0.004-0.062-0.004-0.136 0-0.259 0.054-0.349 0.141l0-0v0.046l-4.8 5.211-4.343-4.251 2.834-2.834c0.088-0.097 0.141-0.226 0.141-0.367 0-0.288-0.222-0.525-0.505-0.547l-0.002-0h-2.24v-1.6h3.109c1.266 1.312 3.039 2.127 5.003 2.127 0.445 0 0.881-0.042 1.303-0.122l-0.043 0.007 0.137 0.091 2.423 0.914 0.137 0.777 0.183 0.914-2.971-0.457zM20.069 18.56l-0.32-1.554 1.463-1.051 0.366 0.457 0.549 0.777-2.057 1.371zM23.817 15.726l-0.823 0.823-0.914-1.28 0.823-0.594c0.137-0.137 0.32-0.183 0.503-0.183 0.372 0.037 0.661 0.349 0.661 0.728 0 0.197-0.078 0.375-0.204 0.507l0-0z"
      />
<path
        d="M13.623 18.56l-2.194-2.149c-0.229-0.229-0.549-0.229-0.777 0l-2.149 2.149c-0.087 0.097-0.14 0.225-0.14 0.366s0.053 0.269 0.14 0.366l-0-0 2.149 2.149c0.099 0.1 0.237 0.161 0.389 0.161s0.289-0.062 0.389-0.161v0l2.149-2.149c0.087-0.097 0.14-0.225 0.14-0.366s-0.053-0.269-0.14-0.366l0 0zM11.063 20.297l-1.371-1.371 1.371-1.371 1.371 1.371-1.371 1.371zM17.143 5.029l-0.229 1.097c0.046 0 1.737 0.457 1.737 2.149h1.006c0-2.057-1.646-2.971-2.56-3.2zM19.703 9.326h-1.051v1.051h1.006v-1.051z"
      />
</symbol>
<symbol id="icon-clock" viewBox="0 0 32 32">
<path
        d="M31.314 15.314c0-0.005 0-0.010 0-0.016 0-8.458-6.856-15.314-15.314-15.314s-15.314 6.856-15.314 15.314c0 6.859 4.51 12.665 10.726 14.615l0.108 0.029c0.137 0 0.229-0.046 0.366-0.137 0.137-0.046 0.229-0.183 0.274-0.366l3.84-12.206c1.058-0.003 1.915-0.861 1.915-1.92 0-1.060-0.86-1.92-1.92-1.92-0.297 0-0.578 0.067-0.829 0.188l0.012-0.005-5.12-5.12c-0.117-0.117-0.279-0.189-0.457-0.189-0.357 0-0.646 0.289-0.646 0.646 0 0.179 0.072 0.34 0.189 0.457l5.12 5.12c-0.114 0.235-0.18 0.511-0.18 0.802 0 0.602 0.284 1.137 0.725 1.48l0.004 0.003-3.657 11.703c-5.431-2.020-9.229-7.159-9.229-13.186 0-7.751 6.283-14.034 14.034-14.034s14.034 6.283 14.034 14.034c0 5.684-3.379 10.578-8.237 12.785l-0.088 0.036-0.366-1.874c-0.057-0.3-0.317-0.524-0.63-0.524-0.162 0-0.31 0.060-0.423 0.159l0.001-0.001-3.84 3.429c-0.137 0.118-0.223 0.292-0.223 0.485 0 0.286 0.188 0.529 0.447 0.61l0.005 0.001 4.891 1.6c0.058 0.019 0.125 0.030 0.195 0.030 0.353 0 0.64-0.287 0.64-0.64 0-0.043-0.004-0.085-0.012-0.126l0.001 0.004-0.366-1.829c5.527-2.379 9.326-7.778 9.326-14.065 0-0.005 0-0.011 0-0.016v0.001zM16 14.629c0.353 0 0.64 0.287 0.64 0.64s-0.287 0.64-0.64 0.64v0c-0.353 0-0.64-0.287-0.64-0.64s0.287-0.64 0.64-0.64v0zM18.103 29.486l2.194-1.966 0.594 2.834-2.789-0.914z"
      />
<path
        d="M15.36 3.2v1.28c0 0.353 0.287 0.64 0.64 0.64s0.64-0.287 0.64-0.64v-1.28c0-0.353-0.287-0.64-0.64-0.64s-0.64 0.287-0.64 0.64v0zM3.886 14.629c-0.366 0-0.663 0.297-0.663 0.663s0.297 0.663 0.663 0.663h1.28c0.353 0 0.64-0.287 0.64-0.64s-0.287-0.64-0.64-0.64h-1.28zM28.114 15.954c0.353 0 0.64-0.287 0.64-0.64s-0.287-0.64-0.64-0.64h-1.28c-0.353 0-0.64 0.287-0.64 0.64s0.287 0.64 0.64 0.64h1.28z"
      />
</symbol>
<symbol id="icon-diagram" viewBox="0 0 32 32">
<path
        d="M14.903 14.949h1.097v4.8h-1.097v-4.8zM19.2 17.097h1.051v2.651h-1.051v-2.651zM10.651 18.697h1.097v1.051h-1.097v-1.006zM7.451 18.149h1.097v1.6h-1.097v-1.6z"
      />
<path
        d="M1.6 28.297h25.6c0.869 0 1.6-0.731 1.6-1.6v-2.149c0-0.914-0.731-1.6-1.6-1.6h-0.549v-13.257l3.017-2.88c0.213 0.112 0.465 0.178 0.733 0.178 0.884 0 1.6-0.716 1.6-1.6s-0.716-1.6-1.6-1.6c-0.884 0-1.6 0.716-1.6 1.6 0 0.234 0.050 0.455 0.14 0.655l-0.004-0.010-2.286 2.149v-1.234c0-0.869-0.731-1.6-1.6-1.6h-21.303c-0.914 0-1.6 0.731-1.6 1.6v16h-0.549c-0.914 0-1.6 0.731-1.6 1.6v2.149c0 0.914 0.731 1.6 1.6 1.6zM30.4 4.846c0.047-0.014 0.101-0.023 0.157-0.023 0.303 0 0.549 0.246 0.549 0.549s-0.246 0.549-0.549 0.549c-0.056 0-0.11-0.008-0.161-0.024l0.004 0.001c-0.229-0.070-0.392-0.279-0.392-0.526s0.163-0.456 0.388-0.525l0.004-0.001zM3.2 6.949c0-0.274 0.229-0.503 0.549-0.503h21.303c0.274 0 0.549 0.229 0.549 0.503v2.286l-1.097 1.006v-2.194c0-0.32-0.229-0.549-0.503-0.549h-19.2c-0.274 0-0.549 0.229-0.549 0.549v13.303c0 0.32 0.274 0.549 0.549 0.549h19.2c0.274 0 0.503-0.229 0.503-0.549v-9.646l1.097-1.006v12.251h-22.4v-16zM8 13.897c-0.007-0-0.015-0-0.022-0-0.884 0-1.6 0.716-1.6 1.6s0.716 1.6 1.6 1.6c0.436 0 0.831-0.174 1.12-0.457l-0 0 1.829 0.914c0.229 0.137 0.503 0.091 0.686-0.091l3.931-4.434 3.84 2.88c0.229 0.183 0.503 0.137 0.686 0l3.383-3.2v8.137h-18.103v-12.297h18.103v2.697l-3.749 3.566-3.931-2.926c-0.229-0.183-0.549-0.137-0.731 0.046l-3.977 4.526-1.463-0.777v-0.137c0-0.914-0.686-1.6-1.554-1.6zM8.549 15.497c0 0.303-0.246 0.549-0.549 0.549s-0.549-0.246-0.549-0.549v0c0-0.303 0.246-0.549 0.549-0.549s0.549 0.246 0.549 0.549v0zM11.749 24.046h5.303v0.503c0 0.32-0.229 0.549-0.549 0.549h-4.251c-0.274 0-0.503-0.229-0.503-0.549v-0.503zM1.051 24.549c0-0.274 0.274-0.503 0.549-0.503h9.051v0.503c0 0.914 0.731 1.6 1.6 1.6h4.251c0.914 0 1.6-0.686 1.6-1.6v-0.503h9.097c0.274 0 0.503 0.229 0.503 0.503v2.149c0 0.274-0.229 0.549-0.503 0.549h-25.6c-0.274 0-0.549-0.274-0.549-0.549v-2.149z"
      />
</symbol>
<symbol id="icon-envelope" viewBox="0 0 43 32">
<path
        d="M38.667 0h-34.667c-2.133 0-4 1.867-4 4v24c0 2.133 1.867 4 4 4h34.667c2.133 0 4-1.867 4-4v-24c0-2.133-1.867-4-4-4zM38.667 2.667h0.533l-17.867 15.467-17.867-15.467h35.2zM38.667 29.333h-34.667c-0.736 0-1.333-0.597-1.333-1.333v0-22.4l17.867 15.467c0.22 0.166 0.498 0.267 0.8 0.267s0.58-0.1 0.803-0.269l-0.003 0.002 17.867-15.733v22.4c0 0.8-0.533 1.333-1.333 1.333z"
      />
</symbol>
<symbol id="icon-facebook" viewBox="0 0 32 32">
<path
        d="M21.28 5.28h3.040v-5.12l-4.32-0.16c-4.16 0-7.040 2.72-7.040 7.52v4.48h-4.96v5.76h4.8v14.24h5.6v-14.4h4.48l0.8-5.6h-5.28v-3.84c0-1.6 0.48-2.88 2.72-2.88z"
      />
</symbol>
<symbol id="icon-facebook1" viewBox="0 0 32 32">
<path
        d="M21.329 5.313h2.921v-5.088c-0.504-0.069-2.237-0.225-4.256-0.225-4.212 0-7.097 2.649-7.097 7.519v4.481h-4.648v5.688h4.648v14.312h5.699v-14.311h4.46l0.708-5.688h-5.169v-3.919c0.001-1.644 0.444-2.769 2.735-2.769z"
      />
</symbol>
<symbol id="icon-instagram" viewBox="0 0 32 32">
<path
        d="M31.969 9.408c-0.075-1.7-0.35-2.869-0.744-3.882-0.406-1.075-1.032-2.038-1.851-2.838-0.8-0.813-1.769-1.444-2.832-1.844-1.019-0.394-2.182-0.669-3.882-0.744-1.713-0.081-2.257-0.1-6.601-0.1s-4.888 0.019-6.595 0.094c-1.7 0.075-2.869 0.35-3.882 0.744-1.075 0.406-2.038 1.031-2.838 1.85-0.813 0.8-1.444 1.769-1.844 2.832-0.394 1.019-0.669 2.182-0.744 3.882-0.081 1.713-0.1 2.257-0.1 6.601s0.019 4.888 0.094 6.595c0.075 1.7 0.35 2.869 0.744 3.882 0.406 1.075 1.038 2.038 1.85 2.838 0.8 0.813 1.769 1.444 2.832 1.844 1.019 0.394 2.182 0.669 3.882 0.744 1.706 0.075 2.25 0.094 6.595 0.094s4.888-0.019 6.595-0.094c1.7-0.075 2.869-0.35 3.882-0.744 2.151-0.832 3.851-2.532 4.682-4.682 0.394-1.019 0.669-2.182 0.744-3.882 0.075-1.707 0.094-2.251 0.094-6.595s-0.006-4.888-0.081-6.595zM29.087 22.473c-0.069 1.563-0.331 2.407-0.55 2.969-0.538 1.394-1.644 2.5-3.038 3.038-0.563 0.219-1.413 0.481-2.969 0.55-1.688 0.075-2.194 0.094-6.464 0.094s-4.782-0.019-6.464-0.094c-1.563-0.069-2.407-0.331-2.969-0.55-0.694-0.256-1.325-0.663-1.838-1.194-0.531-0.519-0.938-1.144-1.194-1.838-0.219-0.563-0.481-1.413-0.55-2.969-0.075-1.688-0.094-2.194-0.094-6.464s0.019-4.782 0.094-6.464c0.069-1.563 0.331-2.407 0.55-2.969 0.256-0.694 0.663-1.325 1.2-1.838 0.519-0.531 1.144-0.938 1.838-1.194 0.563-0.219 1.413-0.481 2.969-0.55 1.688-0.075 2.194-0.094 6.464-0.094 4.276 0 4.782 0.019 6.464 0.094 1.563 0.069 2.407 0.331 2.969 0.55 0.694 0.256 1.325 0.662 1.838 1.194 0.531 0.519 0.938 1.144 1.194 1.838 0.219 0.563 0.481 1.413 0.55 2.969 0.075 1.688 0.094 2.194 0.094 6.464s-0.019 4.77-0.094 6.458z"
      />
<path
        d="M16.059 7.783c-4.538 0-8.22 3.682-8.22 8.22s3.682 8.22 8.22 8.22c4.539 0 8.22-3.682 8.22-8.22s-3.682-8.22-8.22-8.22zM16.059 21.335c-2.944 0-5.332-2.388-5.332-5.332s2.388-5.332 5.332-5.332c2.944 0 5.332 2.388 5.332 5.332s-2.388 5.332-5.332 5.332z"
      />
<path
        d="M26.524 7.458c0 1.060-0.859 1.919-1.919 1.919s-1.919-0.859-1.919-1.919c0-1.060 0.859-1.919 1.919-1.919s1.919 0.859 1.919 1.919z"
      />
</symbol>
<symbol id="icon-instagram1" viewBox="0 0 32 32">
<path
        d="M32 9.44c0-1.6-0.32-2.88-0.8-3.84-0.32-1.12-0.96-2.080-1.76-2.88-0.79-0.823-1.751-1.475-2.826-1.901l-0.054-0.019c-3.142-0.321-6.79-0.504-10.48-0.504s-7.338 0.183-10.934 0.541l0.454-0.037c-1.12 0.48-2.080 1.12-2.88 1.92-0.746 0.756-1.342 1.661-1.741 2.666l-0.019 0.054c-0.48 1.12-0.96 2.24-0.96 4.16-0.035 1.038-0.056 2.258-0.056 3.482 0 4.808 0.311 9.543 0.914 14.186l-0.058-0.548c0.418 1.059 1.014 1.964 1.761 2.721l-0.001-0.001c0.79 0.823 1.751 1.475 2.826 1.901l0.054 0.019c0.96 0.32 2.080 0.64 3.84 0.64 1.251 0.048 2.721 0.075 4.196 0.075 4.553 0 9.045-0.26 13.463-0.765l-0.54 0.050c2.227-0.846 3.954-2.573 4.781-4.744l0.019-0.056 0.64-3.84c0.173-2.39 0.272-5.179 0.272-7.99 0-1.804-0.041-3.599-0.121-5.384l0.009 0.254zM29.12 22.4c0 1.6-0.32 2.4-0.64 3.040-0.48 1.44-1.6 2.56-3.040 3.040-0.48 0.16-1.28 0.48-2.88 0.48-1.382 0.061-3.002 0.095-4.631 0.095-4.004 0-7.959-0.209-11.856-0.616l0.487 0.041c-0.688-0.254-1.276-0.635-1.76-1.12l-0-0c-0.48-0.64-0.96-1.28-1.12-1.92-0.32-0.48-0.64-1.44-0.64-3.040-0.032-1.008-0.051-2.194-0.051-3.384 0-4.389 0.251-8.718 0.739-12.976l-0.049 0.52c0.16-0.64 0.64-1.28 1.12-1.76 0.48-0.64 1.12-0.96 1.76-1.28 0.64-0.16 1.6-0.48 3.2-0.48 1.312-0.055 2.851-0.086 4.397-0.086 3.974 0 7.9 0.205 11.767 0.606l-0.484-0.041c0.8 0.32 1.44 0.64 1.92 1.28 0.48 0.48 0.96 1.12 1.12 1.76 0.32 0.64 0.48 1.44 0.64 3.040 0.116 1.913 0.182 4.149 0.182 6.4s-0.066 4.487-0.196 6.706l0.014-0.306z"
      />
<path
        d="M16 7.84c-0.342-0.051-0.738-0.080-1.14-0.080-4.507 0-8.16 3.653-8.16 8.16s3.653 8.16 8.16 8.16c0.402 0 0.797-0.029 1.184-0.085l-0.044 0.005c3.763-0.776 6.552-4.062 6.552-8s-2.789-7.224-6.499-7.991l-0.053-0.009zM16 21.28c-2.916 0-5.28-2.364-5.28-5.28s2.364-5.28 5.28-5.28v0c2.916 0 5.28 2.364 5.28 5.28s-2.364 5.28-5.28 5.28v0zM26.56 7.52c0 1.060-0.86 1.92-1.92 1.92s-1.92-0.86-1.92-1.92v0c0-1.060 0.86-1.92 1.92-1.92s1.92 0.86 1.92 1.92v0z"
      />
</symbol>
<symbol id="icon-linkedin" viewBox="0 0 32 32">
<path
        d="M31.992 32v-0.001h0.008v-11.736c0-5.741-1.236-10.164-7.948-10.164-3.227 0-5.392 1.771-6.276 3.449h-0.093v-2.913h-6.364v21.364h6.627v-10.579c0-2.785 0.528-5.479 3.977-5.479 3.399 0 3.449 3.179 3.449 5.657v10.401h6.62z"
      />
<path d="M0.528 10.636h6.635v21.364h-6.635v-21.364z" />
<path
        d="M3.843 0c-2.121 0-3.843 1.721-3.843 3.843s1.721 3.879 3.843 3.879c2.121 0 3.843-1.757 3.843-3.879-0.001-2.121-1.723-3.843-3.843-3.843v0z"
      />
</symbol>
<symbol id="icon-linkedin1" viewBox="0 0 32 32">
<path
        d="M31.992 32v-0.001h0.008v-11.736c0-5.741-1.236-10.164-7.948-10.164-3.227 0-5.392 1.771-6.276 3.449h-0.093v-2.913h-6.364v21.364h6.627v-10.579c0-2.785 0.528-5.479 3.977-5.479 3.399 0 3.449 3.179 3.449 5.657v10.401h6.62z"
      />
<path d="M0.528 10.636h6.635v21.364h-6.635v-21.364z" />
<path
        d="M3.843 0c-2.121 0-3.843 1.721-3.843 3.843s1.721 3.879 3.843 3.879c2.121 0 3.843-1.757 3.843-3.879-0.001-2.121-1.723-3.843-3.843-3.843v0z"
      />
</symbol>
<symbol id="icon-logo" viewBox="0 0 57 32">
<path
        d="M28.48 14.613c-0.202-0.265-0.323-0.6-0.323-0.964 0-0.036 0.001-0.072 0.004-0.107l-0 0.005v-1.547c0-0.427 0.107-0.8 0.32-1.067 0.213-0.213 0.587-0.373 1.067-0.373 0.533 0 0.907 0.107 1.067 0.32 0.267 0.267 0.373 0.587 0.32 0.907v0.373h-0.853v-0.693c0-0.107-0.107-0.16-0.16-0.213-0.088-0.067-0.199-0.107-0.32-0.107v0c-0.121 0-0.232 0.040-0.321 0.108l0.001-0.001c-0.107 0-0.16 0.107-0.16 0.213v2.24l0.053 0.533 0.213 0.107 0.213 0.053c0.107 0 0.213 0 0.32-0.107l0.107-0.213v-0.747h0.907v0.373c0 0.32-0.053 0.64-0.267 0.96-0.213 0.213-0.533 0.32-1.067 0.32s-0.907-0.107-1.067-0.373zM32.16 14.613c-0.267-0.213-0.373-0.533-0.373-1.067v-1.6c0-0.427 0.107-0.8 0.373-1.067 0.213-0.16 0.533-0.32 1.067-0.32s0.907 0.16 1.12 0.373c0.213 0.213 0.32 0.533 0.32 1.067v1.6c0 0.427-0.107 0.8-0.32 1.067-0.213 0.213-0.587 0.32-1.067 0.32-0.533 0-0.907-0.107-1.12-0.373zM33.653 14.24l0.107-0.48v-1.973c0-0.16 0-0.32-0.107-0.48l-0.16-0.107c-0.040-0.011-0.086-0.017-0.133-0.017s-0.093 0.006-0.137 0.018l0.004-0.001c-0.032-0.007-0.069-0.011-0.107-0.011s-0.075 0.004-0.11 0.011l0.003-0.001-0.16 0.107c-0.107 0.16-0.16 0.32-0.107 0.48v1.973c0 0.16 0 0.32 0.107 0.533l0.16 0.107c0.071 0.030 0.154 0.047 0.24 0.047s0.169-0.017 0.244-0.048l-0.004 0.002 0.16-0.16zM35.733 10.667h0.96l0.693 2.933 0.747-2.987h0.907l0.053 4.32h-0.64l-0.107-2.987-0.693 2.987h-0.533l-0.693-2.987-0.16 2.987h-0.693l0.107-4.267zM40.16 10.667h1.493c0.853 0 1.28 0.373 1.28 1.173s-0.48 1.173-1.333 1.173h-0.533v1.92h-0.907v-4.267zM41.44 12.48h0.267l0.213-0.16 0.16-0.48-0.053-0.373-0.053-0.107-0.16-0.107c-0.107-0.053-0.267-0.107-0.373-0.053h-0.373v1.28h0.373zM44.267 10.667h0.907l1.067 4.267h-0.907l-0.16-1.013h-0.907l-0.213 1.013h-0.853l1.067-4.267zM45.067 13.44l-0.373-1.813-0.32 1.813h0.693zM46.987 10.667h0.64l1.227 2.4v-2.4h0.747v4.267h-0.587l-1.227-2.56v2.56h-0.853v-4.267zM51.36 13.333l-1.013-2.667h0.853l0.64 1.653 0.533-1.707h0.853l-1.013 2.667v1.653h-0.853v-1.6zM29.867 16.8v0.267h-0.693v1.707h-0.373v-1.707h-0.747v-0.267h1.813zM32.213 18.773h-0.373l-0.213-0.533h-1.013l-0.213 0.533h-0.32l0.907-1.973h0.32l0.907 1.973zM30.72 18.133h0.853l-0.373-0.8-0.053-0.213v0.107l-0.053 0.107-0.373 0.8zM33.76 18.613h0.16c0.115-0.001 0.225-0.021 0.328-0.056l-0.008 0.002 0.107-0.053v-0.48h-0.427v-0.16h0.693v0.747c-0.167 0.11-0.366 0.186-0.58 0.213l-0.007 0.001h-0.267c-0.16 0-0.32 0-0.48-0.107-0.142-0.031-0.267-0.087-0.377-0.162l0.004 0.002-0.213-0.32-0.107-0.427c0-0.16 0-0.267 0.107-0.427 0-0.107 0.107-0.213 0.213-0.32 0.107-0.053 0.213-0.16 0.373-0.16 0.173-0.073 0.374-0.115 0.585-0.115 0.057 0 0.113 0.003 0.168 0.009l-0.007-0.001c0.142 0.035 0.266 0.090 0.378 0.163l-0.005-0.003 0.16 0.107-0.053 0.107h-0.213l-0.16-0.107c-0.109-0.054-0.235-0.092-0.368-0.106l-0.005-0c-0.138 0.014-0.265 0.051-0.379 0.109l0.006-0.003-0.267 0.107-0.16 0.267v0.693c0 0.107 0.107 0.213 0.213 0.267 0.142 0.133 0.334 0.214 0.545 0.214 0.015 0 0.029-0 0.044-0.001l-0.002 0zM36.64 18.56h1.013v0.213h-1.28v-1.973h0.267v1.76zM38.667 18.773h-0.267v-1.973h0.32v1.973zM39.84 16.8v0.053l1.387 1.493v-1.547h0.267v1.973h-0.267l-1.333-1.493v1.547h-0.267v-1.973h0.16zM43.733 16.8v0.213h-1.067v0.693h0.853v0.213h-0.853v0.64h1.067v0.213h-1.387v-1.973h1.387zM11.307 4.64l13.76 3.36v11.733l-13.76-3.36v-11.733zM10.4 3.573v13.493l15.52 3.733v-13.333l-15.467-3.84z"
      />
<path d="M18.72 27.040l-15.52-3.787v-13.44l15.52 3.84v13.333z" />
<path
        d="M10.667 4.48l13.547 3.307-5.76 5.013-13.547-3.36 5.76-4.96zM10.4 3.627l-7.2 6.187 15.52 3.84 7.2-6.24-15.467-3.787zM19.573 26.293l6.4-5.493-6.4-1.547v7.040z"
      />
</symbol>
<symbol id="icon-logo1" viewBox="0 0 57 32">
<path
        d="M26.72 3.2h-0.587c-0.103-0.003-0.225-0.005-0.347-0.005s-0.243 0.002-0.364 0.005l0.018-0c-1.973 0-3.893 0.533-5.653 1.333l-0.267 0.107v11.893l0.533-0.213c1.743-0.592 3.752-0.959 5.84-1.013l0.027-0.001v1.6h-0.587c-2.696 0.137-5.192 0.871-7.397 2.072l0.091-0.045v-15.147c2.29-1.369 5.049-2.181 7.998-2.187h0.268c1.008 0.045 1.959 0.179 2.879 0.394l-0.105-0.021v1.493c-0.64-0.16-1.28-0.213-1.92-0.267h-0.48zM29.387 4.747h1.067c2.956-0.008 5.73-0.778 8.138-2.124l-0.085 0.044v14.933c-2.273 1.328-5.003 2.113-7.918 2.113-1.086 0-2.146-0.109-3.171-0.316l0.102 0.017v-14.933c0.556 0.129 1.214 0.224 1.886 0.265l0.034 0.002zM36.96 4.853l-0.533 0.16-1.493 0.48c-1.346 0.355-2.892 0.558-4.485 0.558-0.336 0-0.67-0.009-1.001-0.027l0.046 0.002h-0.427v12.107h0.32l1.067 0.107c2.313-0.004 4.496-0.556 6.429-1.531l-0.082 0.038 0.213-0.107v-11.787z"
      />
<path
        d="M19.040 24.107c-0.14-0.13-0.327-0.21-0.533-0.213h-0.374c-0.314 0.113-0.535 0.408-0.535 0.755 0 0.016 0 0.032 0.001 0.047l-0-0.002v2.027c0 0.16 0 0.32 0.107 0.427 0 0.107 0.107 0.213 0.16 0.267l0.32 0.16h0.587c0.315-0.13 0.533-0.435 0.533-0.791 0-0.003-0-0.006-0-0.009v0-0.213h-0.533v0.32l-0.213 0.213h-0.107c-0.015 0.003-0.032 0.005-0.050 0.005-0.089 0-0.168-0.044-0.216-0.111l-0.001-0.001-0.053-0.32v-1.92l0.053-0.267c0.042-0.095 0.136-0.161 0.245-0.161 0.008 0 0.015 0 0.023 0.001l-0.001-0c0.096 0.012 0.176 0.074 0.213 0.158l0.001 0.002c0.107 0.053 0.107 0.16 0.107 0.267v0.16h0.533v-0.213c-0.006-0.249-0.107-0.474-0.267-0.64l0 0zM22.187 24.107c-0.163-0.131-0.372-0.21-0.6-0.21-0.11 0-0.215 0.018-0.314 0.052l0.007-0.002c-0.107 0-0.213 0.053-0.267 0.16l-0.213 0.267-0.053 0.373v1.973l0.053 0.373c0 0.107 0.107 0.213 0.213 0.267 0.053 0.107 0.16 0.16 0.267 0.16 0.095 0.037 0.205 0.058 0.32 0.058s0.225-0.021 0.326-0.060l-0.006 0.002c0.107 0 0.213-0.053 0.267-0.16 0.165-0.156 0.267-0.376 0.267-0.62 0-0.007-0-0.014-0-0.021l0 0.001v-1.973l-0.053-0.373c0-0.107-0.107-0.213-0.213-0.267zM21.973 26.72c0 0.002 0 0.003 0 0.005 0 0.102-0.041 0.194-0.107 0.261l0-0c-0.068 0.069-0.162 0.112-0.267 0.112s-0.199-0.043-0.267-0.112l-0-0c-0.066-0.067-0.107-0.16-0.107-0.261 0-0.002 0-0.004 0-0.006v0-1.973c-0-0.002-0-0.003-0-0.005 0-0.102 0.041-0.194 0.107-0.261l-0 0c0.068-0.069 0.162-0.112 0.267-0.112s0.199 0.043 0.267 0.112l0 0c0.066 0.067 0.107 0.16 0.107 0.261 0 0.002 0 0.004-0 0.006v-0 1.973zM26.347 27.573v-3.68h-0.533l-0.64 1.973-0.693-1.973h-0.533v3.68h0.533v-2.24l0.533 1.6h0.267l0.533-1.6v2.24h0.533zM29.333 24.16l-0.32-0.213h-1.173v3.627h0.533v-1.44h0.267c0.16 0 0.32 0 0.48-0.107l0.267-0.267 0.16-0.32c0.028-0.144 0.044-0.31 0.044-0.48s-0.016-0.336-0.047-0.496l0.003 0.016-0.213-0.32zM29.067 25.227l-0.053 0.267-0.16 0.107c-0.040 0.011-0.086 0.017-0.133 0.017s-0.093-0.006-0.137-0.018l0.004 0.001h-0.213v-1.227h0.267l0.213 0.053 0.16 0.16v0.693zM31.787 23.893h-0.427l-0.8 3.68h0.533l0.16-0.8h0.693l0.16 0.8h0.533l-0.853-3.68zM31.307 26.293l0.267-1.333 0.267 1.333h-0.533zM35.2 26.133l-0.853-2.24h-0.48v3.68h0.533v-2.187l0.8 2.187h0.533v-3.68h-0.533v2.24zM38.4 23.893l-0.427 1.44-0.48-1.44h-0.533l0.747 2.133v1.547h0.533v-1.6l0.693-2.080h-0.533zM17.6 28.587h0.267v0.747h0.16v-0.747h0.267v-0.107h-0.693v0.107zM19.733 28.48l-0.32 0.853h0.16l0.053-0.213h0.373l0.053 0.213h0.213l-0.373-0.853h-0.16zM19.733 29.013l0.053-0.373 0.16 0.32h-0.267zM21.867 29.013h0.16v0.107l-0.213 0.053c-0.005 0-0.012 0.001-0.018 0.001-0.055 0-0.104-0.021-0.142-0.054l0 0-0.107-0.213c0-0.213 0.107-0.32 0.267-0.32 0.016-0.006 0.034-0.009 0.054-0.009 0.088 0 0.16 0.072 0.16 0.16 0 0.003-0 0.006-0 0.010l0-0h0.16c0-0.213-0.16-0.32-0.373-0.32l-0.32 0.107c-0.071 0.076-0.115 0.178-0.115 0.291 0 0.029 0.003 0.058 0.008 0.085l-0-0.003c0 0.107 0 0.213 0.107 0.32 0.075 0.067 0.175 0.108 0.284 0.108 0.013 0 0.025-0.001 0.038-0.002l-0.002 0c0.16 0 0.267 0 0.373-0.16v-0.32h-0.373v0.16zM24 28.48h-0.213v0.853h0.587v-0.16h-0.373v-0.693zM25.76 28.48h-0.16v0.853h0.16v-0.853zM27.52 29.013l-0.32-0.533h-0.16v0.853h0.16v-0.533l0.32 0.533h0.16v-0.853h-0.16v0.533zM29.12 28.96h0.427v-0.16h-0.427v-0.213h0.48v-0.107h-0.64v0.853h0.64v-0.16h-0.48v-0.213zM33.067 28.8h-0.373v-0.32h-0.16v0.853h0.16v-0.373h0.32v0.373h0.16v-0.853h-0.107v0.32zM34.667 28.96h0.373v-0.16h-0.373v-0.213h0.48v-0.107h-0.64v0.853h0.64v-0.16h-0.48v-0.213zM36.8 28.96c0.16 0 0.213-0.107 0.213-0.267 0.001-0.005 0.001-0.012 0.001-0.018 0-0.055-0.021-0.104-0.054-0.142l0 0c-0.065-0.035-0.142-0.055-0.224-0.055-0.015 0-0.030 0.001-0.045 0.002l0.002-0h-0.373v0.853h0.213v-0.373h0.107l0.053 0.107 0.213 0.267h0.213l-0.107-0.16-0.213-0.213zM36.64 28.8h-0.107v-0.213h0.267c0.059 0 0.107 0.048 0.107 0.107s-0.048 0.107-0.107 0.107v0c-0.024 0.004-0.052 0.006-0.080 0.006s-0.056-0.002-0.083-0.006l0.003 0zM38.453 28.96h0.427v-0.16h-0.427v-0.213h0.48v-0.107h-0.64v0.853h0.64v-0.16h-0.48v-0.213z"
      />
</symbol>
<symbol id="icon-logo2" viewBox="0 0 57 32">
<path
        d="M19.413 26.187l0.16 0.107-0.32 0.213-0.48 0.107c-0.16 0-0.267 0-0.427-0.107l-0.32-0.16-0.213-0.32c-0.049-0.118-0.078-0.256-0.078-0.4s0.029-0.282 0.080-0.407l-0.003 0.007 0.213-0.32c0.107-0.053 0.213-0.16 0.373-0.16 0.127-0.043 0.274-0.067 0.427-0.067s0.299 0.025 0.436 0.070l-0.010-0.003 0.32 0.16-0.107 0.107h-0.16l-0.053-0.053c-0.115-0.067-0.253-0.107-0.4-0.107-0.009 0-0.019 0-0.028 0l0.001-0-0.32 0.053-0.267 0.16c0 0.107-0.107 0.16-0.16 0.267v0.64l0.16 0.213 0.267 0.16h0.48c0.144-0.016 0.272-0.074 0.374-0.161l-0.001 0.001h0.053zM22.773 25.6l-0.053 0.427-0.267 0.32-0.32 0.16c-0.267 0.107-0.587 0.107-0.907 0-0.122-0.038-0.229-0.092-0.323-0.162l0.003 0.002-0.213-0.32c-0.049-0.118-0.078-0.256-0.078-0.4s0.029-0.282 0.080-0.407l-0.003 0.007c0-0.107 0.107-0.213 0.213-0.32l0.32-0.16c0.32-0.107 0.64-0.107 0.907 0l0.32 0.16c0.197 0.167 0.322 0.416 0.322 0.693 0 0.019-0.001 0.038-0.002 0.057l0-0.003zM22.453 25.6v-0.267c-0.064-0.205-0.222-0.363-0.422-0.425l-0.005-0.001c-0.096-0.031-0.206-0.049-0.32-0.049s-0.224 0.018-0.328 0.051l0.008-0.002-0.267 0.16-0.16 0.267v0.587c0.064 0.205 0.222 0.363 0.422 0.425l0.005 0.001h0.64l0.213-0.16c0.107-0.053 0.16-0.16 0.16-0.267l0.053-0.267zM25.067 25.973v0.053l0.053-0.053v-0.107l0.8-1.173h0.373v1.867h-0.267v-1.493l-0.747 1.173-0.107 0.053h-0.107l-0.907-1.227v1.547h-0.267v-1.867h0.32l0.747 1.173 0.053 0.107zM27.84 25.867v0.693h-0.267v-1.867h1.013c0.107 0 0.16 0.107 0.267 0.16l0.107 0.16 0.053 0.267v0.213l-0.213 0.213-0.213 0.107-0.373 0.053h-0.373zM27.84 25.653h0.587l0.16-0.107 0.107-0.107v-0.373c0-0.053 0-0.107-0.107-0.16l-0.373-0.107h-0.373v0.8zM31.787 26.56h-0.32l-0.213-0.533h-1.013l-0.213 0.533h-0.32l0.853-1.867h0.32l0.907 1.867zM30.347 25.867h0.8l-0.32-0.747-0.107-0.213v0.213l-0.373 0.747zM33.067 24.693l1.28 1.44v-1.44h0.267v1.867h-0.213l-1.333-1.493v1.44h-0.267v-1.867h0.213zM36.747 25.813v0.747h-0.267v-0.747l-0.853-1.12h0.373l0.533 0.8c0.019 0.044 0.037 0.097 0.052 0.152l0.002 0.008 0.053-0.107 0.053-0.053 0.533-0.747v-0.053h0.32l-0.747 1.12zM24.907 21.493h0.427c1.934-0.748 3.542-1.978 4.727-3.546l0.019-0.027c1.173-1.6 1.76-3.413 1.707-5.333l-2.133-1.813c0.131 0.595 0.206 1.278 0.206 1.979 0 1.428-0.312 2.783-0.871 4.001l0.025-0.060c-0.908 1.992-2.315 3.621-4.065 4.774l-0.042 0.026z"
      />
<path
        d="M24.16 21.333v0.053c2.027-1.227 3.52-2.933 4.373-4.907s0.96-4.16 0.373-6.187l-3.040-2.667c0.962 1.642 1.53 3.616 1.53 5.722 0 3.105-1.234 5.922-3.239 7.987l0.003-0.003zM34.613 14.827c-0.585 2.2-1.871 4.040-3.6 5.315l-0.026 0.019-1.76 1.067c1.558-0.405 2.916-1.105 4.073-2.042l-0.020 0.016c1.067-0.907 2.027-2.027 2.56-3.253l-1.227-1.067z"
      />
<path
        d="M34.133 14.56l-1.813-1.6c0 1.813-0.587 3.52-1.653 5.013s-2.56 2.72-4.373 3.573l1.227-0.053c1.653-0.587 3.147-1.6 4.267-2.773 1.087-1.123 1.888-2.529 2.28-4.098l0.013-0.062zM24.427 6.507l-2.133-1.867c-1.896 0.618-3.489 1.729-4.679 3.182l-0.014 0.018c-1.087 1.346-1.749 3.075-1.76 4.957v0.003c0 1.973 0.747 3.84 2.133 5.333 1.387 1.6 3.36 2.667 5.493 3.2 1.996-2.037 3.228-4.83 3.228-7.91 0-2.593-0.873-4.982-2.341-6.89l0.020 0.027zM38.987 14.24c0-2.293-1.067-4.533-2.933-6.133-1.898-1.63-4.386-2.623-7.105-2.623-1.276 0-2.5 0.218-3.638 0.62l0.077-0.024 12.96 11.307c0.427-1.013 0.64-2.080 0.64-3.147z"
      />
</symbol>
<symbol id="icon-logo3" viewBox="0 0 57 32">
<path
        d="M12.853 11.253c-1.28 0-2.293 0.907-2.293 2.080 0 1.12 1.067 2.027 2.293 2.027 1.28 0 2.347-0.907 2.347-2.027 0-1.173-1.067-2.080-2.347-2.080zM29.973 10.613c0-1.6-0.693-3.093-1.973-4.267-1.227-1.067-2.933-1.707-4.747-1.707-1.76 0-3.467 0.64-4.747 1.76-1.227 1.067-1.92 2.667-1.92 4.213v8.693s13.333-1.333 13.333-8.693zM5.867 22.133c0 1.12 0.533 2.133 1.387 2.933 0.867 0.755 2.005 1.218 3.252 1.227h0.002c1.28 0 2.453-0.427 3.307-1.227 0.821-0.702 1.349-1.726 1.386-2.874l0-0.006v-6.080s-9.333 0.907-9.333 6.027zM10.507 23.2c-0.213 0-0.48 0-0.64-0.16-0.213-0.107-0.373-0.267-0.48-0.48-0.053-0.16-0.107-0.427-0.053-0.587 0-0.213 0.16-0.427 0.32-0.533 0.16-0.213 0.427-0.32 0.64-0.32h0.693c0.213 0.107 0.427 0.267 0.533 0.427 0.14 0.172 0.225 0.395 0.225 0.637 0 0.297-0.128 0.564-0.331 0.749l-0.001 0.001-0.427 0.213-0.48 0.107zM19.947 22.667h-0.907v0.907h-0.373v-2.24h1.44v0.427h-1.013v0.533h0.907v0.427zM22.187 22.507c0 0.213 0 0.427-0.107 0.533-0.146 0.317-0.461 0.534-0.826 0.534-0.009 0-0.019-0-0.028-0l0.001 0c-0.16 0-0.32 0-0.533-0.107l-0.32-0.373-0.107-0.587v-0.107c0-0.213 0-0.427 0.107-0.587 0.146-0.317 0.461-0.534 0.826-0.534 0.009 0 0.019 0 0.028 0l-0.001-0c0.213 0 0.373 0 0.533 0.107 0.107 0.107 0.267 0.267 0.32 0.427 0.107 0.16 0.107 0.373 0.107 0.533v0.16zM21.76 22.4c0-0.267-0.053-0.427-0.16-0.533-0.075-0.128-0.212-0.213-0.369-0.213-0.001 0-0.003 0-0.004 0h0c-0.16 0-0.267 0.053-0.373 0.213l-0.107 0.533v0.107c0 0.213 0 0.373 0.107 0.533 0.107 0.107 0.213 0.16 0.373 0.16s0.32 0 0.373-0.16c0.107-0.107 0.107-0.32 0.16-0.533v-0.107zM23.733 22.933s0-0.107-0.107-0.16l-0.32-0.16c-0.16 0-0.32-0.107-0.373-0.16-0.267-0.107-0.427-0.32-0.427-0.533l0.107-0.32c0.107-0.107 0.16-0.213 0.32-0.267l0.427-0.053 0.427 0.053 0.32 0.267 0.107 0.373h-0.48c0-0.107 0-0.16-0.107-0.267-0.061-0.036-0.134-0.057-0.213-0.057-0.019 0-0.038 0.001-0.056 0.004l0.002-0-0.267 0.053-0.107 0.213c0 0.053 0 0.107 0.107 0.16l0.32 0.16c0.267 0.053 0.48 0.16 0.587 0.267 0.16 0.16 0.213 0.267 0.213 0.48s-0.107 0.32-0.213 0.48c-0.16 0.107-0.373 0.16-0.64 0.16-0.16 0-0.32 0-0.48-0.107l-0.32-0.267-0.107-0.373h0.48c0 0.213 0.16 0.373 0.427 0.373 0.107 0 0.213 0 0.267-0.107l0.107-0.16zM26.24 21.707h-0.693v1.867h-0.48v-1.867h-0.693v-0.427h1.867v0.427zM27.84 22.613h-0.853v0.587h1.067v0.373h-1.6v-2.24h1.6v0.427h-1.067v0.533h0.907v0.373zM29.12 22.72h-0.32v0.853h-0.427v-2.24h0.8c0.32 0 0.533 0.107 0.64 0.213 0.16 0.107 0.213 0.267 0.213 0.533 0 0.107 0 0.267-0.107 0.373 0 0.107-0.16 0.16-0.267 0.213l0.48 0.96h-0.533l-0.427-0.853zM28.8 22.4h0.427l0.267-0.053 0.053-0.267-0.053-0.267-0.32-0.053h-0.373v0.64zM31.68 22.827v0.8h-0.533v-2.293h0.96l0.427 0.107 0.32 0.267 0.107 0.427c0 0.213-0.107 0.373-0.267 0.533-0.16 0.107-0.373 0.16-0.64 0.16h-0.373zM31.68 22.453h0.427c0.107 0 0.213 0 0.267-0.107l0.107-0.213c0-0.107 0-0.213-0.107-0.267-0.067-0.066-0.16-0.107-0.261-0.107-0.002 0-0.004 0-0.006 0h-0.426v0.64zM34.613 22.667h-0.907v0.587h1.067v0.373h-1.493v-2.293h1.387v0.427h-1.067v0.533h0.907v0.373zM36.8 21.76h-0.693v1.867h-0.48v-1.867h-0.693v-0.427h1.867v0.427zM38.4 22.667h-0.853v0.587h1.067v0.373h-1.547v-2.293h1.547v0.427h-1.067v0.533h0.853v0.373zM39.733 22.773h-0.373v0.853h-0.533v-2.293h0.907c0.267 0 0.48 0.107 0.587 0.213 0.16 0.107 0.213 0.267 0.213 0.533l-0.053 0.373-0.32 0.213 0.533 0.96h-0.533l-0.427-0.853zM39.36 22.4h0.373l0.267-0.053 0.107-0.267c0-0.107 0-0.213-0.107-0.267l-0.267-0.053h-0.373v0.64zM42.080 23.040l-0.053-0.213-0.373-0.16c-0.16 0-0.267-0.107-0.373-0.16-0.267-0.107-0.373-0.32-0.373-0.533 0-0.16 0-0.267 0.107-0.32 0-0.107 0.16-0.213 0.267-0.267l0.427-0.053 0.48 0.053 0.267 0.267 0.107 0.373h-0.48c0-0.107 0-0.16-0.107-0.267-0.061-0.036-0.134-0.057-0.213-0.057-0.019 0-0.038 0.001-0.056 0.004l0.002-0-0.267 0.053-0.107 0.213 0.16 0.16 0.32 0.16c0.267 0.053 0.427 0.16 0.533 0.267 0.16 0.16 0.213 0.267 0.213 0.48s-0.053 0.32-0.213 0.48c-0.16 0.107-0.373 0.16-0.587 0.16s-0.373 0-0.533-0.107l-0.32-0.267-0.107-0.373h0.533c0 0.213 0.107 0.373 0.427 0.373 0.107 0 0.16 0 0.267-0.107l0.053-0.16z"
      />
</symbol>
<symbol id="icon-logo4" viewBox="0 0 57 32">
<path
        d="M14.293 23.84c0.107 0.16 0.16 0.373 0.16 0.533l-0.053 0.373-0.213 0.267c-0.267 0.213-0.587 0.267-0.907 0.267h-1.547v-3.307h1.493c0.32 0 0.64 0.053 0.853 0.213l0.213 0.267 0.107 0.373c0 0.16-0.053 0.373-0.213 0.533l-0.427 0.213c0.213 0 0.373 0.16 0.533 0.267zM12.48 23.36h0.64c0.107 0 0.267 0 0.373-0.107l0.107-0.16 0.053-0.16v-0.16l-0.16-0.16c-0.107-0.107-0.267-0.107-0.427-0.107h-0.587v0.853zM13.547 24.64l0.16-0.16v-0.373l-0.107-0.16c-0.16-0.107-0.32-0.107-0.48-0.107h-0.64v0.907h0.64c0.16 0 0.32 0 0.48-0.107zM17.387 25.28l-0.853-1.28h-0.32v1.28h-0.747v-3.307h1.387c0.373 0 0.693 0.107 0.96 0.267 0.213 0.213 0.32 0.427 0.32 0.693s-0.053 0.533-0.213 0.693c-0.16 0.16-0.427 0.267-0.64 0.32l0.907 1.333h-0.8zM16.213 23.52h0.587c0.427 0 0.64-0.16 0.64-0.48l-0.053-0.213c-0.027-0.062-0.063-0.115-0.107-0.16l0 0-0.48-0.16h-0.587v1.067zM21.333 24.64h-1.44l-0.267 0.64h-0.747l1.333-3.253h0.8l1.333 3.253h-0.747l-0.267-0.64zM21.12 24.107l-0.533-1.387-0.533 1.387h1.067zM26.293 25.28h-0.693l-1.6-2.24v2.24h-0.747v-3.307h0.693l1.6 2.24v-2.24h0.747v3.307zM30.4 24.533c-0.107 0.213-0.373 0.427-0.64 0.533-0.32 0.16-0.64 0.213-1.013 0.213h-1.28v-3.307h1.333c0.373 0 0.693 0.053 1.067 0.213 0.213 0.107 0.48 0.32 0.587 0.533 0.143 0.254 0.228 0.557 0.228 0.88s-0.084 0.626-0.233 0.889l0.005-0.009zM29.6 24.427c0.195-0.209 0.315-0.491 0.315-0.8s-0.12-0.591-0.316-0.801l0.001 0.001c-0.267-0.213-0.533-0.32-0.907-0.267h-0.533v2.133h0.533c0.32 0 0.64-0.107 0.907-0.267zM21.813 3.627s9.28 3.2 9.067 7.84v7.893s-9.28-3.2-9.067-7.893v-7.84zM39.2 17.493c1.76-1.067 3.733-1.76 5.867-1.973v-2.453c-2.425 0.857-4.431 2.398-5.842 4.389l-0.025 0.037z"
      />
<path
        d="M38.133 18.24c1.44-2.667 3.947-4.693 6.933-5.707v-7.093s-13.227 4.587-12.96 11.2v11.2l1.547-0.587v-1.067c0.32-3.093 1.92-5.92 4.48-7.947z"
      />
<path
        d="M36.853 22.4c0.107-0.747 0.213-1.547 0.48-2.293-1.678 1.77-2.738 4.14-2.826 6.756l-0 0.017 2.56-1.227c-0.213-1.067-0.32-2.133-0.213-3.2zM37.387 22.4c-0.029 0.287-0.045 0.62-0.045 0.957 0 0.718 0.075 1.419 0.217 2.096l-0.012-0.066c3.627-1.973 7.68-5.067 7.52-8.747v-0.32c-2.56 0.267-5.013 1.28-6.88 2.933-0.427 1.067-0.693 2.133-0.8 3.2z"
      />
</symbol>
<symbol id="icon-smartphone" viewBox="0 0 20 32">
<path
        d="M17 0h-14c-1.6 0-3 1.4-3 3v26c0 1.6 1.4 3 3 3h14c1.6 0 3-1.4 3-3v-26c0-1.6-1.4-3-3-3zM3 2h14c0.6 0 1 0.4 1 1v21h-16v-21c0-0.6 0.4-1 1-1zM17 30h-14c-0.552 0-1-0.448-1-1v0-3h16v3c0 0.6-0.4 1-1 1z"
      />
<path
        d="M4.8 27.4v1.4c-0.4 0.4-1.2 0.4-1.6 0-0.248-0.139-0.413-0.4-0.413-0.7s0.165-0.561 0.409-0.698l0.004-0.002c0.4-0.2 1.2-0.2 1.6 0z"
      />
</symbol>
<symbol id="icon-twitter" viewBox="0 0 32 32">
<path
        d="M32 6.080c-1.12 0.48-2.4 0.8-3.84 0.96 1.347-0.785 2.365-2.010 2.867-3.475l0.013-0.045c-1.28 0.8-2.56 1.28-4.16 1.6-1.201-1.288-2.908-2.091-4.803-2.091-3.623 0-6.56 2.937-6.56 6.56 0 0.515 0.059 1.015 0.171 1.496l-0.009-0.044c-5.44-0.32-10.24-2.88-13.44-6.88-0.562 0.947-0.894 2.088-0.894 3.307 0 2.289 1.173 4.305 2.95 5.478l0.025 0.015c-1.117-0.011-2.163-0.306-3.072-0.817l0.032 0.017c0 3.2 2.24 5.92 5.28 6.4-0.553 0.173-1.188 0.272-1.847 0.272-0.422 0-0.835-0.041-1.234-0.119l0.040 0.007c0.96 2.72 3.2 4.64 6.24 4.64-2.212 1.759-5.047 2.822-8.129 2.822-0.575 0-1.141-0.037-1.697-0.109l0.066 0.007c2.88 1.92 6.4 2.72 10.080 2.72 0.003 0 0.007 0 0.011 0 10.25 0 18.56-8.31 18.56-18.56 0-0.225-0.004-0.449-0.012-0.672l0.001 0.032c1.44-0.96 2.4-2.080 3.36-3.36z"
      />
</symbol>
<symbol id="icon-twitter1" viewBox="0 0 32 32">
<path
        d="M32 6.078c-1.19 0.522-2.458 0.868-3.78 1.036 1.36-0.812 2.398-2.088 2.886-3.626-1.268 0.756-2.668 1.29-4.16 1.588-1.204-1.282-2.92-2.076-4.792-2.076-3.632 0-6.556 2.948-6.556 6.562 0 0.52 0.044 1.020 0.152 1.496-5.454-0.266-10.28-2.88-13.522-6.862-0.566 0.982-0.898 2.106-0.898 3.316 0 2.272 1.17 4.286 2.914 5.452-1.054-0.020-2.088-0.326-2.964-0.808 0 0.020 0 0.046 0 0.072 0 3.188 2.274 5.836 5.256 6.446-0.534 0.146-1.116 0.216-1.72 0.216-0.42 0-0.844-0.024-1.242-0.112 0.85 2.598 3.262 4.508 6.13 4.57-2.232 1.746-5.066 2.798-8.134 2.798-0.538 0-1.054-0.024-1.57-0.090 2.906 1.874 6.35 2.944 10.064 2.944 12.072 0 18.672-10 18.672-18.668 0-0.29-0.010-0.57-0.024-0.848 1.302-0.924 2.396-2.078 3.288-3.406z"
      />
</symbol>
<symbol id="icon-logo5" viewBox="0 0 57 32"><path
        d="M20.3 3.7 24 7.3h-7v17.1h18.2V18l3.7 3.5V3.7H20.3zM35 17.4l-10.6-10H35v10zM31.7 22H20V10.4h.8v10.7h11v.8zm-9 4.8-.4 1-.4-1h-.4l.6 1.1v.8h.4v-.8l.6-1.1h-.4zm.6 2 .1-.5h.8l.1.4h.3l-.6-2h-.3l-.8 2h.4zm.5-1.6.3.8h-.6l.3-.8zm1.7.7v.3c0 .2 0 .3.2.4l.4.1.5-.1v.1h.4l-.2-.3.1-.6h-.2l-.1.4-.4-.5h.1l.2-.2v-.6h-.7l-.2.4v.2l.2.2a1 1 0 0 0-.3.2zm.9.5h-.5l-.1-.2.1-.3.5.5zm-.4-.8V27h.3V27.3l-.2.2zm3.1 1c.2-.1.2-.3.2-.5H29v.3h-.7l-.1-.6v-.1l.1-.5.3-.1h.3l.1.4h.3c0-.3 0-.4-.2-.6h-.9l-.3.3v1.1l.3.3.4.1.5-.1zm2-.3v-1.1a.7.7 0 0 0-.7-.4l-.4.1-.3.3-.1.5v.1l.1.5c0 .2.2.3.3.3l.4.1h.4l.3-.4zm-.4-1 .1.4v.6l-.4.2c-.2 0-.3 0-.4-.2v-1.1l.4-.1.3.1z"
      /></symbol>
      <symbol id="closeback" viewBox="0 0 32 32">
<path
        d="M26.667 7.303l-1.97-1.97-7.808 7.808-7.808-7.808-1.97 1.97 7.808 7.808-7.808 7.808 1.97 1.97 7.808-7.808 7.808 7.808 1.97-1.97-7.808-7.808 7.808-7.808z"
      />
</symbol>
<symbol id="modal-person" viewBox="0 0 32 32">
<path
        d="M16 16c2.946 0 5.333-2.388 5.333-5.333s-2.388-5.333-5.333-5.333v0c-2.946 0-5.333 2.388-5.333 5.333s2.388 5.333 5.333 5.333v0zM16 18.667c-3.561 0-10.667 1.787-10.667 5.333v1.333c0 0.732 0.599 1.333 1.333 1.333h18.667c0.732 0 1.333-0.601 1.333-1.333v-1.333c0-3.547-7.108-5.333-10.667-5.333z"
      />
</symbol>
<symbol id="modal-phone" viewBox="0 0 32 32">
<path
        d="M24.882 19.774l-3.268-0.373c-0.090-0.011-0.194-0.018-0.3-0.018-0.707 0-1.347 0.287-1.81 0.75l-2.368 2.368c-3.669-1.894-6.585-4.81-8.427-8.372l-0.051-0.108 2.382-2.377c0.463-0.463 0.75-1.103 0.75-1.81 0-0.106-0.006-0.21-0.019-0.312l0.001 0.012-0.373-3.243c-0.155-1.287-1.24-2.276-2.557-2.276-0.001 0-0.002 0-0.003 0h-2.226c-1.454 0-2.663 1.209-2.574 2.661 0.683 10.987 9.47 19.762 20.444 20.444 1.452 0.089 2.663-1.12 2.663-2.574v-2.226c0-0.004 0-0.008 0-0.012 0-1.308-0.985-2.386-2.253-2.532l-0.012-0.001z"
      />
</symbol>
<symbol id="modal-email" viewBox="0 0 32 32">
<path
        d="M26.667 5.333h-21.333c-1.467 0-2.652 1.2-2.652 2.667l-0.014 16c0 1.467 1.2 2.667 2.667 2.667h21.333c1.467 0 2.667-1.2 2.667-2.667v-16c0-1.467-1.2-2.667-2.667-2.667zM26.133 11.001l-9.426 5.892c-0.201 0.126-0.446 0.2-0.708 0.2s-0.506-0.075-0.713-0.204l0.006 0.003-9.426-5.892c-0.336-0.201-0.557-0.562-0.557-0.975 0-0.625 0.507-1.132 1.132-1.132 0.233 0 0.449 0.070 0.629 0.19l-0.004-0.003 8.933 5.586 8.933-5.588c0.176-0.118 0.392-0.188 0.624-0.188 0.625 0 1.132 0.507 1.132 1.132 0 0.413-0.221 0.775-0.552 0.972l-0.005 0.003z"
      />
</symbol>
<symbol id="signup" viewBox="0 0 32 32">
<path
        d="M32 0l-32 18 10.227 3.787 15.773-14.787-11.997 16.187 0.009 0.003-0.012-0.003v8.813l5.735-6.691 7.267 2.691 4.999-28z"
      />
</symbol>

</defs>
</svg>
